<mxfile host="Electron" modified="2024-04-09T02:31:27.973Z" agent="Mozilla/5.0 (X11; Linux x86_64) AppleWebKit/537.36 (KHTML, like Gecko) draw.io/24.1.0 Chrome/120.0.6099.109 Electron/28.1.0 Safari/537.36" etag="h25JXDIJ18MT2cpQY5nM" version="24.1.0" type="device">
  <diagram name="PÃ¡gina-1" id="E-DP9fMv0TR5NF7smadX">
    <mxGraphModel dx="1364" dy="843" grid="1" gridSize="6" guides="1" tooltips="1" connect="1" arrows="1" fold="1" page="1" pageScale="1" pageWidth="919" pageHeight="600" math="1" shadow="0">
      <root>
        <mxCell id="0" />
        <mxCell id="1" parent="0" />
        <mxCell id="eNphxclO3johrmMUfkd1-10" value="" style="endArrow=none;html=1;rounded=0;entryX=0;entryY=1;entryDx=0;entryDy=0;exitX=1;exitY=0;exitDx=0;exitDy=0;" edge="1" parent="1" source="eNphxclO3johrmMUfkd1-1" target="eNphxclO3johrmMUfkd1-2">
          <mxGeometry width="50" height="50" relative="1" as="geometry">
            <mxPoint x="11.995533905932568" y="292.0044660940674" as="sourcePoint" />
            <mxPoint x="220.92446609406866" y="155.0755339059313" as="targetPoint" />
          </mxGeometry>
        </mxCell>
        <mxCell id="eNphxclO3johrmMUfkd1-11" value="" style="endArrow=none;html=1;rounded=0;exitX=1;exitY=0.5;exitDx=0;exitDy=0;entryX=0;entryY=0.5;entryDx=0;entryDy=0;" edge="1" parent="1" source="eNphxclO3johrmMUfkd1-2" target="eNphxclO3johrmMUfkd1-3">
          <mxGeometry width="50" height="50" relative="1" as="geometry">
            <mxPoint x="258" y="121" as="sourcePoint" />
            <mxPoint x="308" y="71" as="targetPoint" />
          </mxGeometry>
        </mxCell>
        <mxCell id="eNphxclO3johrmMUfkd1-12" value="" style="endArrow=none;html=1;rounded=0;exitX=1;exitY=0.5;exitDx=0;exitDy=0;entryX=0;entryY=0.5;entryDx=0;entryDy=0;" edge="1" parent="1" source="eNphxclO3johrmMUfkd1-3" target="eNphxclO3johrmMUfkd1-5">
          <mxGeometry width="50" height="50" relative="1" as="geometry">
            <mxPoint x="504" y="57" as="sourcePoint" />
            <mxPoint x="734" y="9" as="targetPoint" />
          </mxGeometry>
        </mxCell>
        <mxCell id="eNphxclO3johrmMUfkd1-13" value="" style="endArrow=none;html=1;rounded=0;exitX=1;exitY=0.5;exitDx=0;exitDy=0;entryX=0;entryY=0.5;entryDx=0;entryDy=0;" edge="1" parent="1" source="eNphxclO3johrmMUfkd1-3" target="eNphxclO3johrmMUfkd1-6">
          <mxGeometry width="50" height="50" relative="1" as="geometry">
            <mxPoint x="486" y="95" as="sourcePoint" />
            <mxPoint x="726" y="76" as="targetPoint" />
          </mxGeometry>
        </mxCell>
        <mxCell id="3qVgdPwwvXnHS_knHwvc-8" value="\(A_1\)" style="text;html=1;align=center;verticalAlign=middle;whiteSpace=wrap;rounded=0;fontSize=30;" parent="1" vertex="1">
          <mxGeometry x="228" y="115" width="60" height="30" as="geometry" />
        </mxCell>
        <mxCell id="eNphxclO3johrmMUfkd1-1" value="" style="ellipse;whiteSpace=wrap;html=1;aspect=fixed;fillColor=#0000FF;strokeColor=#0000FF;" vertex="1" parent="1">
          <mxGeometry x="7" y="287" width="10" height="10" as="geometry" />
        </mxCell>
        <mxCell id="eNphxclO3johrmMUfkd1-2" value="" style="ellipse;whiteSpace=wrap;html=1;aspect=fixed;fillColor=#0000FF;strokeColor=#0000FF;" vertex="1" parent="1">
          <mxGeometry x="247" y="95" width="10" height="10" as="geometry" />
        </mxCell>
        <mxCell id="eNphxclO3johrmMUfkd1-3" value="" style="ellipse;whiteSpace=wrap;html=1;aspect=fixed;fillColor=#0000FF;strokeColor=#0000FF;" vertex="1" parent="1">
          <mxGeometry x="487" y="47" width="10" height="10" as="geometry" />
        </mxCell>
        <mxCell id="eNphxclO3johrmMUfkd1-5" value="" style="ellipse;whiteSpace=wrap;html=1;aspect=fixed;fillColor=#0000FF;strokeColor=#0000FF;" vertex="1" parent="1">
          <mxGeometry x="727" y="23" width="10" height="10" as="geometry" />
        </mxCell>
        <mxCell id="eNphxclO3johrmMUfkd1-6" value="" style="ellipse;whiteSpace=wrap;html=1;aspect=fixed;fillColor=#0000FF;strokeColor=#0000FF;" vertex="1" parent="1">
          <mxGeometry x="727" y="71" width="10" height="10" as="geometry" />
        </mxCell>
        <mxCell id="eNphxclO3johrmMUfkd1-14" value="" style="endArrow=none;html=1;rounded=0;exitX=1;exitY=0.5;exitDx=0;exitDy=0;entryX=0;entryY=0.5;entryDx=0;entryDy=0;" edge="1" parent="1" target="eNphxclO3johrmMUfkd1-18" source="eNphxclO3johrmMUfkd1-1">
          <mxGeometry width="50" height="50" relative="1" as="geometry">
            <mxPoint x="16" y="432" as="sourcePoint" />
            <mxPoint x="246" y="292" as="targetPoint" />
          </mxGeometry>
        </mxCell>
        <mxCell id="eNphxclO3johrmMUfkd1-18" value="" style="ellipse;whiteSpace=wrap;html=1;aspect=fixed;fillColor=#0000FF;strokeColor=#0000FF;" vertex="1" parent="1">
          <mxGeometry x="247" y="287" width="10" height="10" as="geometry" />
        </mxCell>
        <mxCell id="eNphxclO3johrmMUfkd1-22" value="" style="endArrow=none;html=1;rounded=0;exitX=1;exitY=0.5;exitDx=0;exitDy=0;entryX=0;entryY=0.5;entryDx=0;entryDy=0;" edge="1" parent="1" source="eNphxclO3johrmMUfkd1-2" target="eNphxclO3johrmMUfkd1-26">
          <mxGeometry width="50" height="50" relative="1" as="geometry">
            <mxPoint x="257.0000000000257" y="172" as="sourcePoint" />
            <mxPoint x="308" y="143" as="targetPoint" />
          </mxGeometry>
        </mxCell>
        <mxCell id="eNphxclO3johrmMUfkd1-23" value="" style="endArrow=none;html=1;rounded=0;exitX=1;exitY=0.5;exitDx=0;exitDy=0;entryX=0;entryY=0.5;entryDx=0;entryDy=0;" edge="1" parent="1" source="eNphxclO3johrmMUfkd1-26" target="eNphxclO3johrmMUfkd1-27">
          <mxGeometry width="50" height="50" relative="1" as="geometry">
            <mxPoint x="504" y="153" as="sourcePoint" />
            <mxPoint x="734" y="105" as="targetPoint" />
          </mxGeometry>
        </mxCell>
        <mxCell id="eNphxclO3johrmMUfkd1-24" value="" style="endArrow=none;html=1;rounded=0;exitX=1;exitY=0.5;exitDx=0;exitDy=0;entryX=0;entryY=0.5;entryDx=0;entryDy=0;" edge="1" parent="1" source="eNphxclO3johrmMUfkd1-26" target="eNphxclO3johrmMUfkd1-28">
          <mxGeometry width="50" height="50" relative="1" as="geometry">
            <mxPoint x="486" y="191" as="sourcePoint" />
            <mxPoint x="726" y="172" as="targetPoint" />
          </mxGeometry>
        </mxCell>
        <mxCell id="eNphxclO3johrmMUfkd1-26" value="" style="ellipse;whiteSpace=wrap;html=1;aspect=fixed;fillColor=#0000FF;strokeColor=#0000FF;" vertex="1" parent="1">
          <mxGeometry x="487" y="143" width="10" height="10" as="geometry" />
        </mxCell>
        <mxCell id="eNphxclO3johrmMUfkd1-27" value="" style="ellipse;whiteSpace=wrap;html=1;aspect=fixed;fillColor=#0000FF;strokeColor=#0000FF;" vertex="1" parent="1">
          <mxGeometry x="727" y="119" width="10" height="10" as="geometry" />
        </mxCell>
        <mxCell id="eNphxclO3johrmMUfkd1-28" value="" style="ellipse;whiteSpace=wrap;html=1;aspect=fixed;fillColor=#0000FF;strokeColor=#0000FF;" vertex="1" parent="1">
          <mxGeometry x="727" y="167" width="10" height="10" as="geometry" />
        </mxCell>
        <mxCell id="eNphxclO3johrmMUfkd1-29" value="" style="endArrow=none;html=1;rounded=0;exitX=1;exitY=0.5;exitDx=0;exitDy=0;entryX=0;entryY=0.5;entryDx=0;entryDy=0;" edge="1" parent="1" target="eNphxclO3johrmMUfkd1-32" source="eNphxclO3johrmMUfkd1-18">
          <mxGeometry width="50" height="50" relative="1" as="geometry">
            <mxPoint x="257" y="292" as="sourcePoint" />
            <mxPoint x="308" y="263" as="targetPoint" />
          </mxGeometry>
        </mxCell>
        <mxCell id="eNphxclO3johrmMUfkd1-30" value="" style="endArrow=none;html=1;rounded=0;exitX=1;exitY=0.5;exitDx=0;exitDy=0;entryX=0;entryY=0.5;entryDx=0;entryDy=0;" edge="1" parent="1" source="eNphxclO3johrmMUfkd1-32" target="eNphxclO3johrmMUfkd1-33">
          <mxGeometry width="50" height="50" relative="1" as="geometry">
            <mxPoint x="504" y="249" as="sourcePoint" />
            <mxPoint x="734" y="201" as="targetPoint" />
          </mxGeometry>
        </mxCell>
        <mxCell id="eNphxclO3johrmMUfkd1-31" value="" style="endArrow=none;html=1;rounded=0;exitX=1;exitY=0.5;exitDx=0;exitDy=0;entryX=0;entryY=0.5;entryDx=0;entryDy=0;" edge="1" parent="1" source="eNphxclO3johrmMUfkd1-32" target="eNphxclO3johrmMUfkd1-34">
          <mxGeometry width="50" height="50" relative="1" as="geometry">
            <mxPoint x="486" y="287" as="sourcePoint" />
            <mxPoint x="726" y="268" as="targetPoint" />
          </mxGeometry>
        </mxCell>
        <mxCell id="eNphxclO3johrmMUfkd1-32" value="" style="ellipse;whiteSpace=wrap;html=1;aspect=fixed;fillColor=#0000FF;strokeColor=#0000FF;" vertex="1" parent="1">
          <mxGeometry x="487" y="239" width="10" height="10" as="geometry" />
        </mxCell>
        <mxCell id="eNphxclO3johrmMUfkd1-33" value="" style="ellipse;whiteSpace=wrap;html=1;aspect=fixed;fillColor=#0000FF;strokeColor=#0000FF;" vertex="1" parent="1">
          <mxGeometry x="727" y="215" width="10" height="10" as="geometry" />
        </mxCell>
        <mxCell id="eNphxclO3johrmMUfkd1-34" value="" style="ellipse;whiteSpace=wrap;html=1;aspect=fixed;fillColor=#0000FF;strokeColor=#0000FF;" vertex="1" parent="1">
          <mxGeometry x="727" y="263" width="10" height="10" as="geometry" />
        </mxCell>
        <mxCell id="eNphxclO3johrmMUfkd1-35" value="" style="endArrow=none;html=1;rounded=0;exitX=1;exitY=0.5;exitDx=0;exitDy=0;entryX=0;entryY=0.5;entryDx=0;entryDy=0;" edge="1" parent="1" target="eNphxclO3johrmMUfkd1-38" source="eNphxclO3johrmMUfkd1-18">
          <mxGeometry width="50" height="50" relative="1" as="geometry">
            <mxPoint x="257" y="292" as="sourcePoint" />
            <mxPoint x="308" y="335" as="targetPoint" />
          </mxGeometry>
        </mxCell>
        <mxCell id="eNphxclO3johrmMUfkd1-36" value="" style="endArrow=none;html=1;rounded=0;exitX=1;exitY=0.5;exitDx=0;exitDy=0;entryX=0;entryY=0.5;entryDx=0;entryDy=0;" edge="1" parent="1" source="eNphxclO3johrmMUfkd1-38" target="eNphxclO3johrmMUfkd1-39">
          <mxGeometry width="50" height="50" relative="1" as="geometry">
            <mxPoint x="504" y="345" as="sourcePoint" />
            <mxPoint x="734" y="297" as="targetPoint" />
          </mxGeometry>
        </mxCell>
        <mxCell id="eNphxclO3johrmMUfkd1-37" value="" style="endArrow=none;html=1;rounded=0;exitX=1;exitY=0.5;exitDx=0;exitDy=0;entryX=0;entryY=0.5;entryDx=0;entryDy=0;" edge="1" parent="1" source="eNphxclO3johrmMUfkd1-38" target="eNphxclO3johrmMUfkd1-40">
          <mxGeometry width="50" height="50" relative="1" as="geometry">
            <mxPoint x="486" y="383" as="sourcePoint" />
            <mxPoint x="726" y="364" as="targetPoint" />
          </mxGeometry>
        </mxCell>
        <mxCell id="eNphxclO3johrmMUfkd1-38" value="" style="ellipse;whiteSpace=wrap;html=1;aspect=fixed;fillColor=#0000FF;strokeColor=#0000FF;" vertex="1" parent="1">
          <mxGeometry x="487" y="335" width="10" height="10" as="geometry" />
        </mxCell>
        <mxCell id="eNphxclO3johrmMUfkd1-39" value="" style="ellipse;whiteSpace=wrap;html=1;aspect=fixed;fillColor=#0000FF;strokeColor=#0000FF;" vertex="1" parent="1">
          <mxGeometry x="727" y="311" width="10" height="10" as="geometry" />
        </mxCell>
        <mxCell id="eNphxclO3johrmMUfkd1-40" value="" style="ellipse;whiteSpace=wrap;html=1;aspect=fixed;fillColor=#0000FF;strokeColor=#0000FF;" vertex="1" parent="1">
          <mxGeometry x="727" y="359" width="10" height="10" as="geometry" />
        </mxCell>
        <mxCell id="eNphxclO3johrmMUfkd1-55" value="" style="endArrow=none;html=1;rounded=0;exitX=1;exitY=1;exitDx=0;exitDy=0;entryX=0;entryY=0;entryDx=0;entryDy=0;" edge="1" parent="1" target="eNphxclO3johrmMUfkd1-56" source="eNphxclO3johrmMUfkd1-1">
          <mxGeometry width="50" height="50" relative="1" as="geometry">
            <mxPoint x="17" y="436" as="sourcePoint" />
            <mxPoint x="246" y="436" as="targetPoint" />
          </mxGeometry>
        </mxCell>
        <mxCell id="eNphxclO3johrmMUfkd1-56" value="" style="ellipse;whiteSpace=wrap;html=1;aspect=fixed;fillColor=#0000FF;strokeColor=#0000FF;" vertex="1" parent="1">
          <mxGeometry x="247" y="479" width="10" height="10" as="geometry" />
        </mxCell>
        <mxCell id="eNphxclO3johrmMUfkd1-57" value="" style="endArrow=none;html=1;rounded=0;exitX=1;exitY=0.5;exitDx=0;exitDy=0;entryX=0;entryY=0.5;entryDx=0;entryDy=0;" edge="1" parent="1" source="eNphxclO3johrmMUfkd1-56" target="eNphxclO3johrmMUfkd1-60">
          <mxGeometry width="50" height="50" relative="1" as="geometry">
            <mxPoint x="257" y="508" as="sourcePoint" />
            <mxPoint x="308" y="479" as="targetPoint" />
          </mxGeometry>
        </mxCell>
        <mxCell id="eNphxclO3johrmMUfkd1-58" value="" style="endArrow=none;html=1;rounded=0;exitX=1;exitY=0.5;exitDx=0;exitDy=0;entryX=0;entryY=0.5;entryDx=0;entryDy=0;" edge="1" parent="1" source="eNphxclO3johrmMUfkd1-60" target="eNphxclO3johrmMUfkd1-61">
          <mxGeometry width="50" height="50" relative="1" as="geometry">
            <mxPoint x="504" y="441" as="sourcePoint" />
            <mxPoint x="734" y="393" as="targetPoint" />
          </mxGeometry>
        </mxCell>
        <mxCell id="eNphxclO3johrmMUfkd1-59" value="" style="endArrow=none;html=1;rounded=0;exitX=1;exitY=0.5;exitDx=0;exitDy=0;entryX=0;entryY=0.5;entryDx=0;entryDy=0;" edge="1" parent="1" source="eNphxclO3johrmMUfkd1-60" target="eNphxclO3johrmMUfkd1-62">
          <mxGeometry width="50" height="50" relative="1" as="geometry">
            <mxPoint x="486" y="479" as="sourcePoint" />
            <mxPoint x="726" y="460" as="targetPoint" />
          </mxGeometry>
        </mxCell>
        <mxCell id="eNphxclO3johrmMUfkd1-60" value="" style="ellipse;whiteSpace=wrap;html=1;aspect=fixed;fillColor=#0000FF;strokeColor=#0000FF;" vertex="1" parent="1">
          <mxGeometry x="487" y="431" width="10" height="10" as="geometry" />
        </mxCell>
        <mxCell id="eNphxclO3johrmMUfkd1-61" value="" style="ellipse;whiteSpace=wrap;html=1;aspect=fixed;fillColor=#0000FF;strokeColor=#0000FF;" vertex="1" parent="1">
          <mxGeometry x="727" y="407" width="10" height="10" as="geometry" />
        </mxCell>
        <mxCell id="eNphxclO3johrmMUfkd1-62" value="" style="ellipse;whiteSpace=wrap;html=1;aspect=fixed;fillColor=#0000FF;strokeColor=#0000FF;" vertex="1" parent="1">
          <mxGeometry x="727" y="455" width="10" height="10" as="geometry" />
        </mxCell>
        <mxCell id="eNphxclO3johrmMUfkd1-63" value="" style="endArrow=none;html=1;rounded=0;exitX=1;exitY=0.5;exitDx=0;exitDy=0;entryX=0;entryY=0.5;entryDx=0;entryDy=0;" edge="1" parent="1" source="eNphxclO3johrmMUfkd1-56" target="eNphxclO3johrmMUfkd1-66">
          <mxGeometry width="50" height="50" relative="1" as="geometry">
            <mxPoint x="257" y="508" as="sourcePoint" />
            <mxPoint x="308" y="551" as="targetPoint" />
          </mxGeometry>
        </mxCell>
        <mxCell id="eNphxclO3johrmMUfkd1-64" value="" style="endArrow=none;html=1;rounded=0;exitX=1;exitY=0.5;exitDx=0;exitDy=0;entryX=0;entryY=0.5;entryDx=0;entryDy=0;" edge="1" parent="1" source="eNphxclO3johrmMUfkd1-66" target="eNphxclO3johrmMUfkd1-67">
          <mxGeometry width="50" height="50" relative="1" as="geometry">
            <mxPoint x="504" y="537" as="sourcePoint" />
            <mxPoint x="734" y="489" as="targetPoint" />
          </mxGeometry>
        </mxCell>
        <mxCell id="eNphxclO3johrmMUfkd1-65" value="" style="endArrow=none;html=1;rounded=0;exitX=1;exitY=0.5;exitDx=0;exitDy=0;entryX=0;entryY=0.5;entryDx=0;entryDy=0;" edge="1" parent="1" source="eNphxclO3johrmMUfkd1-66" target="eNphxclO3johrmMUfkd1-68">
          <mxGeometry width="50" height="50" relative="1" as="geometry">
            <mxPoint x="486" y="575" as="sourcePoint" />
            <mxPoint x="726" y="556" as="targetPoint" />
          </mxGeometry>
        </mxCell>
        <mxCell id="eNphxclO3johrmMUfkd1-66" value="" style="ellipse;whiteSpace=wrap;html=1;aspect=fixed;fillColor=#0000FF;strokeColor=#0000FF;" vertex="1" parent="1">
          <mxGeometry x="487" y="527" width="10" height="10" as="geometry" />
        </mxCell>
        <mxCell id="eNphxclO3johrmMUfkd1-67" value="" style="ellipse;whiteSpace=wrap;html=1;aspect=fixed;fillColor=#0000FF;strokeColor=#0000FF;" vertex="1" parent="1">
          <mxGeometry x="727" y="503" width="10" height="10" as="geometry" />
        </mxCell>
        <mxCell id="eNphxclO3johrmMUfkd1-68" value="" style="ellipse;whiteSpace=wrap;html=1;aspect=fixed;fillColor=#0000FF;strokeColor=#0000FF;" vertex="1" parent="1">
          <mxGeometry x="727" y="551" width="10" height="10" as="geometry" />
        </mxCell>
        <mxCell id="eNphxclO3johrmMUfkd1-70" value="\(A_2\)" style="text;html=1;align=center;verticalAlign=middle;whiteSpace=wrap;rounded=0;fontSize=30;" vertex="1" parent="1">
          <mxGeometry x="228" y="307" width="60" height="30" as="geometry" />
        </mxCell>
        <mxCell id="eNphxclO3johrmMUfkd1-71" value="\(A_3\)" style="text;html=1;align=center;verticalAlign=middle;whiteSpace=wrap;rounded=0;fontSize=30;" vertex="1" parent="1">
          <mxGeometry x="228" y="499" width="60" height="30" as="geometry" />
        </mxCell>
        <mxCell id="eNphxclO3johrmMUfkd1-74" value="\(B\)" style="text;html=1;align=center;verticalAlign=middle;whiteSpace=wrap;rounded=0;fontSize=25;" vertex="1" parent="1">
          <mxGeometry x="462" y="63" width="60" height="30" as="geometry" />
        </mxCell>
        <mxCell id="eNphxclO3johrmMUfkd1-75" value="\(B^c\)" style="text;html=1;align=center;verticalAlign=middle;whiteSpace=wrap;rounded=0;fontSize=25;" vertex="1" parent="1">
          <mxGeometry x="462" y="158" width="60" height="30" as="geometry" />
        </mxCell>
        <mxCell id="eNphxclO3johrmMUfkd1-76" value="\(B\)" style="text;html=1;align=center;verticalAlign=middle;whiteSpace=wrap;rounded=0;fontSize=25;" vertex="1" parent="1">
          <mxGeometry x="462" y="255" width="60" height="30" as="geometry" />
        </mxCell>
        <mxCell id="eNphxclO3johrmMUfkd1-77" value="\(B^c\)" style="text;html=1;align=center;verticalAlign=middle;whiteSpace=wrap;rounded=0;fontSize=25;" vertex="1" parent="1">
          <mxGeometry x="462" y="350" width="60" height="30" as="geometry" />
        </mxCell>
        <mxCell id="eNphxclO3johrmMUfkd1-78" value="\(B\)" style="text;html=1;align=center;verticalAlign=middle;whiteSpace=wrap;rounded=0;fontSize=25;" vertex="1" parent="1">
          <mxGeometry x="462" y="447" width="60" height="30" as="geometry" />
        </mxCell>
        <mxCell id="eNphxclO3johrmMUfkd1-79" value="\(B^c\)" style="text;html=1;align=center;verticalAlign=middle;whiteSpace=wrap;rounded=0;fontSize=25;" vertex="1" parent="1">
          <mxGeometry x="462" y="542" width="60" height="30" as="geometry" />
        </mxCell>
        <mxCell id="eNphxclO3johrmMUfkd1-80" value="\(C\)" style="text;html=1;align=center;verticalAlign=middle;whiteSpace=wrap;rounded=0;fontSize=20;" vertex="1" parent="1">
          <mxGeometry x="699" y="33" width="60" height="30" as="geometry" />
        </mxCell>
        <mxCell id="eNphxclO3johrmMUfkd1-81" value="\(C^c\)" style="text;html=1;align=center;verticalAlign=middle;whiteSpace=wrap;rounded=0;fontSize=20;" vertex="1" parent="1">
          <mxGeometry x="704" y="81" width="60" height="30" as="geometry" />
        </mxCell>
        <mxCell id="eNphxclO3johrmMUfkd1-82" value="\(C\)" style="text;html=1;align=center;verticalAlign=middle;whiteSpace=wrap;rounded=0;fontSize=20;" vertex="1" parent="1">
          <mxGeometry x="699" y="129" width="60" height="30" as="geometry" />
        </mxCell>
        <mxCell id="eNphxclO3johrmMUfkd1-83" value="\(C^c\)" style="text;html=1;align=center;verticalAlign=middle;whiteSpace=wrap;rounded=0;fontSize=20;" vertex="1" parent="1">
          <mxGeometry x="704" y="177" width="60" height="30" as="geometry" />
        </mxCell>
        <mxCell id="eNphxclO3johrmMUfkd1-84" value="\(C\)" style="text;html=1;align=center;verticalAlign=middle;whiteSpace=wrap;rounded=0;fontSize=20;" vertex="1" parent="1">
          <mxGeometry x="699" y="225" width="60" height="30" as="geometry" />
        </mxCell>
        <mxCell id="eNphxclO3johrmMUfkd1-85" value="\(C^c\)" style="text;html=1;align=center;verticalAlign=middle;whiteSpace=wrap;rounded=0;fontSize=20;" vertex="1" parent="1">
          <mxGeometry x="704" y="273" width="60" height="30" as="geometry" />
        </mxCell>
        <mxCell id="eNphxclO3johrmMUfkd1-86" value="\(C\)" style="text;html=1;align=center;verticalAlign=middle;whiteSpace=wrap;rounded=0;fontSize=20;" vertex="1" parent="1">
          <mxGeometry x="699" y="321" width="60" height="30" as="geometry" />
        </mxCell>
        <mxCell id="eNphxclO3johrmMUfkd1-87" value="\(C^c\)" style="text;html=1;align=center;verticalAlign=middle;whiteSpace=wrap;rounded=0;fontSize=20;" vertex="1" parent="1">
          <mxGeometry x="704" y="369" width="60" height="30" as="geometry" />
        </mxCell>
        <mxCell id="eNphxclO3johrmMUfkd1-88" value="\(C\)" style="text;html=1;align=center;verticalAlign=middle;whiteSpace=wrap;rounded=0;fontSize=20;" vertex="1" parent="1">
          <mxGeometry x="699" y="417" width="60" height="30" as="geometry" />
        </mxCell>
        <mxCell id="eNphxclO3johrmMUfkd1-89" value="\(C^c\)" style="text;html=1;align=center;verticalAlign=middle;whiteSpace=wrap;rounded=0;fontSize=20;" vertex="1" parent="1">
          <mxGeometry x="704" y="465" width="60" height="30" as="geometry" />
        </mxCell>
        <mxCell id="eNphxclO3johrmMUfkd1-90" value="\(C\)" style="text;html=1;align=center;verticalAlign=middle;whiteSpace=wrap;rounded=0;fontSize=20;" vertex="1" parent="1">
          <mxGeometry x="699" y="513" width="60" height="30" as="geometry" />
        </mxCell>
        <mxCell id="eNphxclO3johrmMUfkd1-91" value="\(C^c\)" style="text;html=1;align=center;verticalAlign=middle;whiteSpace=wrap;rounded=0;fontSize=20;" vertex="1" parent="1">
          <mxGeometry x="704" y="561" width="60" height="30" as="geometry" />
        </mxCell>
        <mxCell id="eNphxclO3johrmMUfkd1-92" value="\(P(A_1)\)" style="text;html=1;align=center;verticalAlign=middle;whiteSpace=wrap;rounded=0;fontSize=30;rotation=-40;" vertex="1" parent="1">
          <mxGeometry x="102" y="150" width="60" height="30" as="geometry" />
        </mxCell>
        <mxCell id="eNphxclO3johrmMUfkd1-93" value="\(P(A_3)\)" style="text;html=1;align=center;verticalAlign=middle;whiteSpace=wrap;rounded=0;fontSize=30;rotation=40;" vertex="1" parent="1">
          <mxGeometry x="106" y="349" width="60" height="30" as="geometry" />
        </mxCell>
        <mxCell id="eNphxclO3johrmMUfkd1-95" value="\(P(A_2)\)" style="text;html=1;align=center;verticalAlign=middle;whiteSpace=wrap;rounded=0;fontSize=30;rotation=0;" vertex="1" parent="1">
          <mxGeometry x="106" y="253" width="60" height="30" as="geometry" />
        </mxCell>
        <mxCell id="eNphxclO3johrmMUfkd1-97" value="\(P(B|A_1)\)" style="text;html=1;align=center;verticalAlign=middle;whiteSpace=wrap;rounded=0;fontSize=25;rotation=347;" vertex="1" parent="1">
          <mxGeometry x="334" y="42" width="60" height="30" as="geometry" />
        </mxCell>
        <mxCell id="eNphxclO3johrmMUfkd1-98" value="\(P(B|A_2)\)" style="text;html=1;align=center;verticalAlign=middle;whiteSpace=wrap;rounded=0;fontSize=25;rotation=347;" vertex="1" parent="1">
          <mxGeometry x="334" y="234" width="60" height="30" as="geometry" />
        </mxCell>
        <mxCell id="eNphxclO3johrmMUfkd1-99" value="\(P(B|A_3)\)" style="text;html=1;align=center;verticalAlign=middle;whiteSpace=wrap;rounded=0;fontSize=25;rotation=347;" vertex="1" parent="1">
          <mxGeometry x="334" y="426" width="60" height="30" as="geometry" />
        </mxCell>
        <mxCell id="eNphxclO3johrmMUfkd1-100" value="\(P(B^c|A_3)\)" style="text;html=1;align=center;verticalAlign=middle;whiteSpace=wrap;rounded=0;fontSize=25;rotation=13;" vertex="1" parent="1">
          <mxGeometry x="340" y="516" width="60" height="30" as="geometry" />
        </mxCell>
        <mxCell id="eNphxclO3johrmMUfkd1-101" value="\(P(B^c|A_2)\)" style="text;html=1;align=center;verticalAlign=middle;whiteSpace=wrap;rounded=0;fontSize=25;rotation=13;" vertex="1" parent="1">
          <mxGeometry x="340" y="324" width="60" height="30" as="geometry" />
        </mxCell>
        <mxCell id="eNphxclO3johrmMUfkd1-102" value="\(P(B^c|A_1)\)" style="text;html=1;align=center;verticalAlign=middle;whiteSpace=wrap;rounded=0;fontSize=25;rotation=13;" vertex="1" parent="1">
          <mxGeometry x="340" y="132" width="60" height="30" as="geometry" />
        </mxCell>
        <mxCell id="eNphxclO3johrmMUfkd1-103" value="\(P(C|B\cap A_1)\)" style="text;html=1;align=center;verticalAlign=middle;whiteSpace=wrap;rounded=0;fontSize=16;rotation=353;" vertex="1" parent="1">
          <mxGeometry x="566" y="15" width="60" height="30" as="geometry" />
        </mxCell>
        <mxCell id="eNphxclO3johrmMUfkd1-104" value="\(P(C|B^c\cap A_1)\)" style="text;html=1;align=center;verticalAlign=middle;whiteSpace=wrap;rounded=0;fontSize=16;rotation=353;" vertex="1" parent="1">
          <mxGeometry x="569" y="111" width="60" height="30" as="geometry" />
        </mxCell>
        <mxCell id="eNphxclO3johrmMUfkd1-105" value="\(P(C|B^c\cap A_2)\)" style="text;html=1;align=center;verticalAlign=middle;whiteSpace=wrap;rounded=0;fontSize=16;rotation=353;" vertex="1" parent="1">
          <mxGeometry x="569" y="302" width="60" height="30" as="geometry" />
        </mxCell>
        <mxCell id="eNphxclO3johrmMUfkd1-106" value="\(P(C|B^c\cap A_3)\)" style="text;html=1;align=center;verticalAlign=middle;whiteSpace=wrap;rounded=0;fontSize=16;rotation=353;" vertex="1" parent="1">
          <mxGeometry x="569" y="494" width="60" height="30" as="geometry" />
        </mxCell>
        <mxCell id="eNphxclO3johrmMUfkd1-107" value="\(P(C^c|B^c\cap A_3)\)" style="text;html=1;align=center;verticalAlign=middle;whiteSpace=wrap;rounded=0;fontSize=16;rotation=7;" vertex="1" parent="1">
          <mxGeometry x="575" y="542" width="60" height="30" as="geometry" />
        </mxCell>
        <mxCell id="eNphxclO3johrmMUfkd1-108" value="\(P(C|B\cap A_2)\)" style="text;html=1;align=center;verticalAlign=middle;whiteSpace=wrap;rounded=0;fontSize=16;rotation=353;" vertex="1" parent="1">
          <mxGeometry x="566" y="206" width="60" height="30" as="geometry" />
        </mxCell>
        <mxCell id="eNphxclO3johrmMUfkd1-109" value="\(P(C|B\cap A_3)\)" style="text;html=1;align=center;verticalAlign=middle;whiteSpace=wrap;rounded=0;fontSize=16;rotation=353;" vertex="1" parent="1">
          <mxGeometry x="566" y="398" width="60" height="30" as="geometry" />
        </mxCell>
        <mxCell id="eNphxclO3johrmMUfkd1-110" value="\(P(C^c|B^c\cap A_2)\)" style="text;html=1;align=center;verticalAlign=middle;whiteSpace=wrap;rounded=0;fontSize=16;rotation=7;" vertex="1" parent="1">
          <mxGeometry x="575" y="350" width="60" height="30" as="geometry" />
        </mxCell>
        <mxCell id="eNphxclO3johrmMUfkd1-111" value="\(P(C^c|B^c\cap A_1)\)" style="text;html=1;align=center;verticalAlign=middle;whiteSpace=wrap;rounded=0;fontSize=16;rotation=7;" vertex="1" parent="1">
          <mxGeometry x="575" y="157" width="60" height="30" as="geometry" />
        </mxCell>
        <mxCell id="eNphxclO3johrmMUfkd1-112" value="\(P(C^c|B\cap A_1)\)" style="text;html=1;align=center;verticalAlign=middle;whiteSpace=wrap;rounded=0;fontSize=16;rotation=7;" vertex="1" parent="1">
          <mxGeometry x="571" y="60" width="60" height="30" as="geometry" />
        </mxCell>
        <mxCell id="eNphxclO3johrmMUfkd1-113" value="\(P(C^c|B\cap A_2)\)" style="text;html=1;align=center;verticalAlign=middle;whiteSpace=wrap;rounded=0;fontSize=16;rotation=7;" vertex="1" parent="1">
          <mxGeometry x="571" y="253" width="60" height="30" as="geometry" />
        </mxCell>
        <mxCell id="eNphxclO3johrmMUfkd1-114" value="\(P(C^c|B\cap A_3)\)" style="text;html=1;align=center;verticalAlign=middle;whiteSpace=wrap;rounded=0;fontSize=16;rotation=7;" vertex="1" parent="1">
          <mxGeometry x="571" y="446" width="60" height="30" as="geometry" />
        </mxCell>
        <mxCell id="eNphxclO3johrmMUfkd1-115" value="\(P(A_1\cap B\cap C)\)" style="text;html=1;align=center;verticalAlign=middle;whiteSpace=wrap;rounded=0;fontSize=16;rotation=0;" vertex="1" parent="1">
          <mxGeometry x="796" y="15" width="60" height="30" as="geometry" />
        </mxCell>
        <mxCell id="eNphxclO3johrmMUfkd1-116" value="\(P(A_1\cap B\cap C^c)\)" style="text;html=1;align=center;verticalAlign=middle;whiteSpace=wrap;rounded=0;fontSize=16;rotation=0;" vertex="1" parent="1">
          <mxGeometry x="799" y="63" width="60" height="30" as="geometry" />
        </mxCell>
        <mxCell id="eNphxclO3johrmMUfkd1-117" value="\(P(A_1\cap B^c\cap C^c)\)" style="text;html=1;align=center;verticalAlign=middle;whiteSpace=wrap;rounded=0;fontSize=16;rotation=0;" vertex="1" parent="1">
          <mxGeometry x="805" y="159" width="60" height="30" as="geometry" />
        </mxCell>
        <mxCell id="eNphxclO3johrmMUfkd1-118" value="\(P(A_1\cap B^c\cap C)\)" style="text;html=1;align=center;verticalAlign=middle;whiteSpace=wrap;rounded=0;fontSize=16;rotation=0;" vertex="1" parent="1">
          <mxGeometry x="798" y="111" width="60" height="30" as="geometry" />
        </mxCell>
        <mxCell id="eNphxclO3johrmMUfkd1-119" value="\(P(A_2\cap B\cap C)\)" style="text;html=1;align=center;verticalAlign=middle;whiteSpace=wrap;rounded=0;fontSize=16;rotation=0;" vertex="1" parent="1">
          <mxGeometry x="796" y="207" width="60" height="30" as="geometry" />
        </mxCell>
        <mxCell id="eNphxclO3johrmMUfkd1-120" value="\(P(A_2\cap B\cap C^c)\)" style="text;html=1;align=center;verticalAlign=middle;whiteSpace=wrap;rounded=0;fontSize=16;rotation=0;" vertex="1" parent="1">
          <mxGeometry x="799" y="255" width="60" height="30" as="geometry" />
        </mxCell>
        <mxCell id="eNphxclO3johrmMUfkd1-121" value="\(P(A_2\cap B^c\cap C^c)\)" style="text;html=1;align=center;verticalAlign=middle;whiteSpace=wrap;rounded=0;fontSize=16;rotation=0;" vertex="1" parent="1">
          <mxGeometry x="805" y="351" width="60" height="30" as="geometry" />
        </mxCell>
        <mxCell id="eNphxclO3johrmMUfkd1-122" value="\(P(A_2\cap B^c\cap C)\)" style="text;html=1;align=center;verticalAlign=middle;whiteSpace=wrap;rounded=0;fontSize=16;rotation=0;" vertex="1" parent="1">
          <mxGeometry x="798" y="303" width="60" height="30" as="geometry" />
        </mxCell>
        <mxCell id="eNphxclO3johrmMUfkd1-123" value="\(P(A_3\cap B\cap C)\)" style="text;html=1;align=center;verticalAlign=middle;whiteSpace=wrap;rounded=0;fontSize=16;rotation=0;" vertex="1" parent="1">
          <mxGeometry x="796" y="399" width="60" height="30" as="geometry" />
        </mxCell>
        <mxCell id="eNphxclO3johrmMUfkd1-124" value="\(P(A_3\cap B\cap C^c)\)" style="text;html=1;align=center;verticalAlign=middle;whiteSpace=wrap;rounded=0;fontSize=16;rotation=0;" vertex="1" parent="1">
          <mxGeometry x="799" y="447" width="60" height="30" as="geometry" />
        </mxCell>
        <mxCell id="eNphxclO3johrmMUfkd1-125" value="\(P(A_3\cap B^c\cap C^c)\)" style="text;html=1;align=center;verticalAlign=middle;whiteSpace=wrap;rounded=0;fontSize=16;rotation=0;" vertex="1" parent="1">
          <mxGeometry x="805" y="543" width="60" height="30" as="geometry" />
        </mxCell>
        <mxCell id="eNphxclO3johrmMUfkd1-126" value="\(P(A_3\cap B^c\cap C)\)" style="text;html=1;align=center;verticalAlign=middle;whiteSpace=wrap;rounded=0;fontSize=16;rotation=0;" vertex="1" parent="1">
          <mxGeometry x="798" y="495" width="60" height="30" as="geometry" />
        </mxCell>
      </root>
    </mxGraphModel>
  </diagram>
</mxfile>
